<svg xmlns="http://www.w3.org/2000/svg" width="30.5" height="30.5" viewBox="0 0 30.5 30.5">
  <g id="search" transform="translate(-1.75 -1.75)">
    <path id="Ellipse_33" data-name="Ellipse 33" d="M12.5-1.25A13.75,13.75,0,0,1,26.25,12.5,13.75,13.75,0,0,1,12.5,26.25,13.75,13.75,0,0,1-1.25,12.5,13.75,13.75,0,0,1,12.5-1.25Zm0,25A11.25,11.25,0,1,0,1.25,12.5,11.263,11.263,0,0,0,12.5,23.75Z" transform="translate(3 3)" fill="#fff"/>
    <path id="Line_68" data-name="Line 68" d="M6.767,8.017a1.246,1.246,0,0,1-.884-.366L-.884.884a1.25,1.25,0,0,1,0-1.768,1.25,1.25,0,0,1,1.768,0L7.651,5.883a1.25,1.25,0,0,1-.884,2.134Z" transform="translate(24.233 24.233)" fill="#fff"/>
  </g>
</svg>
